<?xml version="1.0" encoding="UTF-8"?>
<svg width="77px" height="62px" viewBox="0 0 77 62" version="1.1" xmlns="http://www.w3.org/2000/svg" xmlns:xlink="http://www.w3.org/1999/xlink">
    <title>Group 8</title>
    <g id="Symbols" stroke="none" stroke-width="1" fill="none" fill-rule="evenodd">
        <g id="Group-8" transform="translate(0.222300, 0.222100)">
            <path d="M15.251,7.626 C15.251,11.837 11.837,15.252 7.625,15.252 C3.414,15.252 0,11.837 0,7.626 C0,3.415 3.414,0 7.625,0 C11.837,0 15.251,3.415 15.251,7.626" id="Fill-1" fill="#E85245"/>
            <path d="M15.251,61.0056 C6.828,61.0056 0,54.1776 0,45.7546 C0,37.3306 6.828,30.5036 15.251,30.5036 L15.251,61.0056 Z" id="Fill-3" fill="#E85245"/>
            <path d="M45.7534,30.5031 L45.7534,61.0051 C37.3304,61.0051 30.5024,54.1771 30.5024,45.7541 L30.5024,30.5031 L30.5024,0.0011 C38.9254,0.0011 45.7534,6.8281 45.7534,15.2521 L45.7534,30.5031 Z" id="Fill-5" fill="#E85245"/>
            <path d="M61.005,30.5031 L61.005,61.0051 C69.428,61.0051 76.256,54.1771 76.256,45.7541 L76.256,30.5031 L76.256,0.0011 C67.833,0.0011 61.005,6.8281 61.005,15.2521 L61.005,30.5031 Z" id="Fill-7" fill="#F6A600"/>
        </g>
    </g>
</svg>